<svg xmlns="http://www.w3.org/2000/svg" xmlns:xlink="http://www.w3.org/1999/xlink" fill="none" version="1.1" width="44" height="44" viewBox="0 0 44 44"><defs><clipPath id="master_svg0_1_990"><rect x="0" y="0" width="44" height="44" rx="0"/></clipPath></defs><g clip-path="url(#master_svg0_1_990)"><g><path d="M6.963837529296875,38.7453916796875L5.229217529296875,37.0107816796875L8.698447529296875,33.5584716796875L10.441527529296875,35.3015516796875L6.963837529296875,38.7453916796875Z" fill="#FFFFFF" fill-opacity="1"/></g><g transform="matrix(0.7071067690849304,-0.7071067690849304,0.7071067690849304,0.7071067690849304,-19.486069365205367,16.617507349953485)"><rect x="10.316070556640625" y="31.830520629882812" width="4.873846054077148" height="2.453845739364624" rx="0" fill="#FFFFFF" fill-opacity="1"/></g><g><path d="M17.2361551171875,28.37999607421875L15.6199951171875,26.72153607421875L19.0638451171875,23.26922607421875L20.7984551171875,25.00383607421875L17.2361551171875,28.37999607421875Z" fill="#FFFFFF" fill-opacity="1"/></g><g><path d="M22.41460267578125,23.201537919921876L20.67999267578125,21.458467919921876L24.27614267578125,18.014617919921875L26.01076267578125,19.749227919921875L22.41460267578125,23.201537919921876Z" fill="#FFFFFF" fill-opacity="1"/></g><g transform="matrix(0.7071067690849304,-0.7071067690849304,0.7071067690849304,0.7071067690849304,-3.9367736397789486,23.058683068008577)"><rect x="25.86590576171875" y="16.281448364257812" width="4.873846054077148" height="2.453845739364624" rx="0" fill="#FFFFFF" fill-opacity="1"/></g><g><path d="M32.78003015625,12.83615095703125L31.04541015625,11.10154095703125L34.64156015625,7.64923095703125L36.37618015625,9.38385095703125L32.78003015625,12.83615095703125Z" fill="#FFFFFF" fill-opacity="1"/></g><g transform="matrix(0.7071067690849304,-0.7071067690849304,0.7071067690849304,0.7071067690849304,6.463246833524863,27.44054010398304)"><rect x="36.35528564453125" y="5.9184417724609375" width="0.9307692050933838" height="2.453845739364624" rx="0" fill="#FFFFFF" fill-opacity="1"/></g><g><path d="M39.1092,4.890777991368625L39.1092,41.55457758789063C39.1092,42.90847758789062,38.0177,43.999977587890626,36.6638,43.999977587890626C35.31,43.999977587890626,34.2185,42.90847758789062,34.2185,41.55457758789063L34.2185,9.781547587890625L2.44538,9.781547587890625C1.09154,9.781547587890625,0,8.690007587890625,0,7.336157587890625C0,5.982317587890625,1.09154,4.890777587890625,2.44538,4.890777587890625L39.1092,4.890777991368625Z" fill="#FFFFFF" fill-opacity="1"/></g><g><path d="M41.5545470703125,39.1092L4.8907470703125,39.1092L4.8907470703125,2.44538C4.8907470703125,1.09154,5.9822870703125,0,7.3361270703125,0C8.6899770703125,0,9.7815170703125,1.09154,9.7815170703125,2.44538L9.7815170703125,34.2269L41.5630470703125,34.2269C42.9169470703125,34.2269,44.0084470703125,35.3185,44.0084470703125,36.6723C44.0084470703125,38.0261,42.9169470703125,39.1177,41.5630470703125,39.1177L41.5545470703125,39.1092Z" fill="#FFFFFF" fill-opacity="1"/></g></g></svg>