<svg xmlns="http://www.w3.org/2000/svg" xmlns:xlink="http://www.w3.org/1999/xlink" fill="none" version="1.1" width="44" height="44" viewBox="0 0 44 44"><defs><clipPath id="master_svg0_1_976"><rect x="0" y="0" width="44" height="44" rx="0"/></clipPath></defs><g clip-path="url(#master_svg0_1_976)"><g><g><path d="M38.05157978515625,12.3369121484375C39.28697978515625,11.1015321484375,39.28697978515625,9.096142148437501,38.05157978515625,7.8607621484375L33.66004978515625,3.4692211484374997C33.06773978515625,2.8684521484375,32.26388978515625,2.5384521484375,31.42619978515625,2.5384521484375C30.58850978515625,2.5384521484375,29.77619978515625,2.8769141484375,29.18388978515625,3.4692211484374997L24.69927978515625,7.9538321484375L33.566969785156246,16.821552148437497L38.05157978515625,12.3369121484375Z" fill="#FFFFFF" fill-opacity="1"/></g><g><path d="M31.3246,19.0638569921875L22.4569,10.1961669921875L4.52692,28.1176669921875C3.29154,29.3530669921875,2.00538,31.7476669921875,1.65,33.4653669921875L0,41.512366992187495L8.04692,39.8623669921875C9.79,39.5069669921875,12.1592,38.2207669921875,13.3946,36.9853669921875" fill="#FFFFFF" fill-opacity="1"/></g><g><path d="M31.976161054687502,38.77924412109375C32.2892310546875,38.61847412109375,32.5938510546875,38.44924412109375,32.8900010546875,38.26309412109375C31.1130810546875,38.18693412109375,29.590001054687498,37.62001512109375,28.6253910546875,36.74847412109375C27.6607710546875,37.07847312109375,26.5438510546875,37.38308912109375,25.2830810546875,37.66232212109375C25.9515430546875,38.71155412109375,26.9500010546875,39.57462412109375,28.1684610546875,40.20924412109375C29.6576910546875,39.78616412109375,30.9269210546875,39.31231412109375,31.976161054687502,38.77924412109375Z" fill="#FFFFFF" fill-opacity="1"/></g><g><path d="M43.60222651367187,35.123868142578125C43.331526513671875,34.81079214257812,42.942226513671876,34.61617744257813,42.527626513671876,34.59079067257812C42.113026513671876,34.565407142578124,41.706926513671874,34.70925214257812,41.393826513671875,34.98848414257812C38.61842651367188,37.467711142578125,35.47919651367187,38.38156114257812,32.88996651367187,38.27156114257812C32.593816513671875,38.45772114257812,32.289196513671875,38.626941142578126,31.976116513671876,38.787711142578125C30.926886513671874,39.32079114257812,29.657656513671874,39.79464114257812,28.168426513671875,40.217711142578125C32.145346513671875,42.26540114257813,38.49152651367187,41.825411142578126,43.475326513671874,37.36618114257813C44.126926513671876,36.78233114257812,44.18612651367188,35.78387114257813,43.61072651367188,35.13233214257812L43.60222651367187,35.123868142578125Z" fill="#FFFFFF" fill-opacity="1"/></g><g><path d="M25.274634912109377,37.66231449011719C22.423074912109374,38.288469370117184,18.810004912109374,38.77077437011719,14.443844912109375,39.109234370117186C13.572309912109375,39.17693437011719,12.929233612109375,39.93846437011719,12.996925872109376,40.810004370117184C13.030772012109376,41.22462437011719,13.216925912109375,41.61385437011719,13.538464912109376,41.88462437011719C13.851541912109376,42.15538437011719,14.266154912109375,42.29077437011719,14.680774912109374,42.265394370117185C20.316154912109376,41.83385437011719,24.800734912109377,41.15692437011719,28.160034912109374,40.20077437011719C26.941534912109375,39.574624370117185,25.943034912109376,38.71154437011719,25.274634912109377,37.65385437011719L25.274634912109377,37.66231449011719Z" fill="#FFFFFF" fill-opacity="1"/></g><g><path d="M27.508499853515623,34.04079354980469C27.830039853515625,31.163863549804688,31.358499853515625,30.495413549804688,32.25542985351562,31.91694354980469C33.35541985351563,33.66002354980469,32.95772985351562,34.74310354980469,30.571579853515626,35.94464354980469C30.013119853515626,36.232333549804686,29.361579853515625,36.494643549804685,28.625429853515627,36.74848354980469C29.598499853515627,37.620023549804685,31.113119853515624,38.18696354980469,32.890039853515624,38.263063549804684C36.08849985351563,36.26618354980469,36.892299853515624,33.37233354980469,34.903899853515625,30.216183549804686C32.47542985351562,26.349263549804686,25.054657853515625,27.74541454980469,24.394657553515625,33.685413549804686C24.216965853515624,35.073103549804685,24.530041853515623,36.477723549804686,25.283118853515624,37.662333549804686C26.543889853515626,37.39156354980469,27.660809853515623,37.07849354980469,28.625429853515627,36.74848354980469C27.821579853515626,36.02926354980469,27.398499853515624,35.090023549804684,27.516959853515626,34.04079354980469L27.508499853515623,34.04079354980469Z" fill="#FFFFFF" fill-opacity="1"/></g></g></g></svg>