<?xml version="1.0" encoding="utf-8"?>
<!-- Generator: Adobe Illustrator 27.3.1, SVG Export Plug-In . SVG Version: 6.00 Build 0)  -->
<svg version="1.1" id="图层_1" xmlns="http://www.w3.org/2000/svg" xmlns:xlink="http://www.w3.org/1999/xlink" x="0px" y="0px"
	 viewBox="0 0 44 44" style="enable-background:new 0 0 44 44;" xml:space="preserve">
<style type="text/css">
	.st0{fill:#FFFFFF;}
</style>
<path class="st0" d="M30,23c0.5,0.5,1.3,0.6,1.8,0.2L32,23l6.9-7.3c0.6-0.6,0.6-1.6,0-2.2L32,6.3c-0.5-0.5-1.3-0.6-1.8-0.2l-0.2,0.1
	l0,0c-0.6,0.6-0.6,1.5,0,2.1l4.5,4.7h-18C9.8,13.1,4.2,18.5,4,25.2l0,0.4c0,6.8,5.4,12.3,12.1,12.5l0.4,0h21.9
	c0.9,0,1.6-0.7,1.6-1.6c0-0.9-0.7-1.6-1.6-1.6H16.5c-5.2,0-9.4-4.2-9.4-9.4s4.2-9.4,9.4-9.4h18L30,20.9C29.5,21.5,29.5,22.4,30,23
	L30,23z"/>
</svg>
