<?xml version="1.0" encoding="UTF-8"?>
<svg id="_图层_1" data-name="图层 1" xmlns="http://www.w3.org/2000/svg" xmlns:xlink="http://www.w3.org/1999/xlink" viewBox="0 0 44 44">
  <defs>
    <style>
      .cls-1 {
        fill: #fff;
        fill-rule: evenodd;
      }

      .cls-2 {
        clip-path: url(#clippath);
      }

      .cls-3 {
        fill: none;
      }
    </style>
    <clipPath id="clippath">
      <rect class="cls-3" width="44" height="44"/>
    </clipPath>
  </defs>
  <g class="cls-2">
    <path class="cls-1" d="m41.45,9.23c.15-.17.26-.36.34-.58.08-.21.12-.43.12-.66,0-.06,0-.12,0-.19,0-.06-.02-.12-.03-.18-.01-.06-.03-.12-.05-.18-.02-.06-.04-.12-.06-.18s-.05-.11-.08-.17c-.03-.05-.06-.11-.1-.16-.03-.05-.07-.1-.11-.15-.04-.05-.08-.09-.13-.14-.04-.04-.09-.09-.14-.13-.05-.04-.1-.08-.15-.11s-.11-.07-.16-.1c-.05-.03-.11-.06-.17-.08-.06-.02-.12-.04-.18-.06-.06-.02-.12-.03-.18-.05-.06-.01-.12-.02-.18-.03-.06,0-.12,0-.19,0-.14,0-.27.01-.41.04-.13.03-.26.07-.39.13-.12.06-.24.13-.35.21-.11.08-.21.18-.3.28h0s-21.66,25.4-21.66,25.4l-10.52-11c-.09-.09-.19-.18-.29-.25-.11-.07-.22-.13-.34-.19s-.24-.09-.37-.11c-.13-.03-.25-.04-.38-.04-.06,0-.12,0-.19,0-.06,0-.12.02-.18.03-.06.01-.12.03-.18.05-.06.02-.12.04-.18.06-.06.02-.11.05-.17.08-.05.03-.11.06-.16.1-.05.03-.1.07-.15.11-.05.04-.09.08-.14.13-.04.04-.09.09-.13.14-.04.05-.08.1-.11.15-.03.05-.07.11-.1.16-.03.05-.06.11-.08.17-.02.06-.04.12-.06.18-.02.06-.03.12-.05.18-.01.06-.02.12-.03.18s0,.12,0,.19c0,.12.01.24.03.36.02.12.06.23.1.35.05.11.1.22.17.32.07.1.14.2.22.28h0s11.98,12.52,11.98,12.52c.04.05.09.09.14.13.05.04.1.08.15.11.05.04.1.07.16.1.05.03.11.06.17.08.06.02.12.05.17.07.06.02.12.04.18.05.06.01.12.02.18.03s.12.01.19.01c.06,0,.12,0,.19,0,.06,0,.12-.01.18-.02.06-.01.12-.02.18-.04.06-.02.12-.04.18-.06.06-.02.11-.05.17-.08.06-.03.11-.06.16-.09.05-.03.1-.07.15-.11.05-.04.1-.08.14-.12.04-.04.09-.09.13-.14l23.02-27h0s0,0,0,0Z"/>
  </g>
</svg>