<svg xmlns="http://www.w3.org/2000/svg" xmlns:xlink="http://www.w3.org/1999/xlink" fill="none" version="1.1" width="44" height="44" viewBox="0 0 44 44"><defs><clipPath id="master_svg0_1_806"><rect x="0" y="0" width="44" height="44" rx="0"/></clipPath></defs><g clip-path="url(#master_svg0_1_806)"><g><path d="M13.9552,23.1144C13.47768,23.6151,12.703,23.686,12.14294,23.2801L11.97541,23.1364L5.0296400000000006,15.85187C4.453065,15.24717,4.453065,14.29641,5.0296400000000006,13.69171L11.95156,6.428608C12.42908,5.9278521,13.20376,5.856927,13.76382,6.262301L13.93135,6.406597L13.95459,6.428608C14.5159,7.01557,14.5159,7.94066,13.95459,8.52762L9.48569,13.206240000000001L27.478,13.206240000000001C34.2416,13.206240000000001,39.7823,18.576999999999998,39.9939,25.3369L40,25.7282C40,32.4911,34.6293,38.0325,27.8694,38.244L27.478,38.2501L5.56524,38.2501C4.700691,38.2501,4,37.5494,4,36.6849C4,35.8203,4.700691,35.1196,5.56524,35.1196L27.4787,35.1196C32.665400000000005,35.1196,36.8701,30.9149,36.8701,25.7282C36.8701,20.5415,32.665400000000005,16.3367,27.4787,16.3367L9.48936,16.3367L13.9552,21.0153C14.5159,21.6023,14.5159,22.5262,13.9552,23.1131L13.9552,23.1144Z" fill="#FFFFFF" fill-opacity="1"/></g></g></svg>